<svg id="Layer_1" data-name="Layer 1" xmlns="http://www.w3.org/2000/svg" viewBox="0 0 402 100"><title>RR_Wordmark_Standard_RGB_POS_</title><path d="M245.25,91.55l2.84-7.48h.09l2.75,7.48ZM256,99.12,249.13,81h-2l-6.91,18.08h2.18l2.17-5.77h7l2.08,5.77Zm7.19-16.18h2.93c2.09,0,3.79,1,3.79,3.21,0,1.52-.76,3.41-3.69,3.41h-3Zm-63.89,0h2.94c2.08,0,3.78,1,3.78,3.21,0,1.52-.75,3.41-3.69,3.41h-3ZM170.29,81H157.6v1.9H163V99.12h2.08V82.94h5.21ZM282.54,99.31a4.7,4.7,0,0,0,5-4.73c0-2.56-1.32-3.88-4.35-5.87-2.18-1.42-3.12-2.18-3.12-3.79a2.28,2.28,0,0,1,2.46-2.27A2.92,2.92,0,0,1,285.38,85l1.79-.38a4.57,4.57,0,0,0-4.54-3.79,4.25,4.25,0,0,0-4.54,4.26c0,2.46,1.51,3.6,4,5.3,2.75,1.9,3.51,2.75,3.51,4.26a2.76,2.76,0,0,1-2.94,2.84c-2,0-3.12-1.51-3.59-3.22l-1.8.48c.47,2.27,2,4.54,5.3,4.54m-52.72.19a8.92,8.92,0,0,0,6.81-2.84l-1.42-1.23a6.94,6.94,0,0,1-5.3,2.18c-4.44,0-7-3.69-7-7.48,0-4.35,3.12-7.57,7.1-7.57a6.67,6.67,0,0,1,5.11,2.17l1.51-1.32A8.5,8.5,0,0,0,230,80.67a9.46,9.46,0,0,0-9.28,9.46c0,5,3.41,9.37,9.09,9.37M130.82,81h-1.89l-6.44,10.13L116.34,81h-1.89V99.12h1.89V84.92h.09l5.3,8.9H123l5.78-9h.09V99.12h2ZM261.15,99.12h2.08V91.36h3.12l4.83,7.76h2.27l-5-8.14a4.86,4.86,0,0,0,3.6-4.92c0-2.74-2.18-5-5.77-5h-5.11Zm-63.89,0h2.08V91.36h3.13l4.82,7.76h2.27l-5-8.14a4.87,4.87,0,0,0,3.6-4.92c0-2.74-2.18-5-5.78-5h-5.11ZM145.77,82.56c4,0,7.2,3,7.2,7.57a7.32,7.32,0,0,1-7.2,7.48c-4,0-7.19-3-7.19-7.57a7.32,7.32,0,0,1,7.19-7.48m36.54,0c4,0,7.19,3,7.19,7.57a7.32,7.32,0,0,1-7.19,7.48c-4,0-7.2-3-7.2-7.57a7.32,7.32,0,0,1,7.2-7.48M145.77,99.5a9.39,9.39,0,0,0,9.37-9.37,9.18,9.18,0,0,0-9.37-9.46A9.39,9.39,0,0,0,136.4,90a9.18,9.18,0,0,0,9.37,9.46m36.54,0a9.4,9.4,0,0,0,9.37-9.37,9.18,9.18,0,0,0-9.37-9.46A9.38,9.38,0,0,0,172.94,90a9.18,9.18,0,0,0,9.37,9.46M267.58,9.59c12.88,0,21.2,10.22,21.2,21.48,0,11.93-9,21.67-20.82,21.67-13,0-21.39-10.41-21.39-21.48,0-11.93,9.09-21.67,21-21.67m.19-2.84a24.24,24.24,0,0,0-24.32,24.51c0,13.25,10,24.32,24.32,24.32A24.22,24.22,0,0,0,292,31.07c0-13.16-10-24.32-24.23-24.32M209.09,3.34h13.06c7,0,12.21,5,12.21,11.74,0,6.24-4.26,11.73-11.92,11.73H209.09Zm-3,51.2h3V29.65h13.25l15.53,24.89h3.59l-16-25.27a14,14,0,0,0,11.92-14.19C237.39,6.65,230.77.5,222.15.5H206.06ZM3.62,3.34H16.68c7,0,12.21,5,12.21,11.74,0,6.24-4.26,11.73-11.93,11.73H3.62Zm-3,51.2h3V29.65H16.87L32.39,54.54H36L20,29.27A14,14,0,0,0,31.91,15.08C31.91,6.65,25.29.5,16.68.5H.59Zm182.1-22.33h14.86V29.56H182.69Zm-84-24.42h-3V54.54h23l.76-2.84H98.64Zm31,0h-3V54.54h23l.76-2.84H129.59Zm198.09,0h-3.59L309.8,31.07,295.41,7.79h-3.79l16.47,25.93V54.54h3V33.72ZM166.79,28.23c-6.53-4.54-7.95-7.38-7.95-11.17a7.07,7.07,0,0,1,7.28-7.1c3.79,0,6.44,1.9,7.76,5.59l2.37-1.42c-1.23-4.35-5.11-6.91-10-6.91A10.13,10.13,0,0,0,155.9,17.35c0,5.3,2.56,8.7,9.09,13.25,7.95,5.58,9.46,8.23,9.46,12.68a8.78,8.78,0,0,1-8.89,9c-4.26,0-7.48-2.36-9.38-6.43l-2.46,1.32A12.1,12.1,0,0,0,165.46,55c6.63,0,12-4.74,12-11.74,0-5.87-2.37-9.37-10.69-15m234-17.6V7.79H376.43V54.54h24.23l.75-2.84h-22V32.11h20.25V29.27H379.46V10.63Zm-50,44.95c6.91,0,13.53-2.36,18.17-7.19l-2.08-2a21.69,21.69,0,0,1-15.81,6.34c-11.36,0-21.1-8.51-21.1-21.57A21.48,21.48,0,0,1,351.44,9.59c5.68,0,11.36,1.7,15.43,6l1.7-2.46c-4.35-4.54-10.69-6.34-17.13-6.34a24.75,24.75,0,0,0-24.7,24.6c0,13.63,10.12,24.23,24,24.23M62.11,9.59c12.87,0,21.2,10.22,21.2,21.48,0,11.93-9,21.67-20.82,21.67-13,0-21.39-10.41-21.39-21.48,0-11.93,9.08-21.67,21-21.67m.19-2.84A24.24,24.24,0,0,0,38,31.26C38,44.51,48,55.58,62.3,55.58A24.22,24.22,0,0,0,86.53,31.07c0-13.16-10-24.32-24.23-24.32"/></svg>